<svg width="55" height="55" viewBox="0 0 55 55" fill="none" xmlns="http://www.w3.org/2000/svg">
<path d="M5.68842 46.1925C4.55187 46.1925 3.58984 45.7988 2.80234 45.0113C2.01484 44.2238 1.62109 43.2618 1.62109 42.1253V12.8754C1.62109 11.7389 2.01484 10.7769 2.80234 9.98936C3.58984 9.20186 4.55187 8.80811 5.68842 8.80811H49.3036C50.4402 8.80811 51.4022 9.20186 52.1897 9.98936C52.9772 10.7769 53.3709 11.7389 53.3709 12.8754V42.1253C53.3709 43.2618 52.9772 44.2238 52.1897 45.0113C51.4022 45.7988 50.4402 46.1925 49.3036 46.1925H5.68842ZM35.0162 42.8176H49.3037C49.4768 42.8176 49.6354 42.7455 49.7797 42.6013C49.9239 42.457 49.996 42.2983 49.996 42.1253V12.8754C49.996 12.7023 49.9239 12.5437 49.7797 12.3994C49.6354 12.2552 49.4768 12.1831 49.3037 12.1831H5.68842C5.51532 12.1831 5.35664 12.2552 5.21238 12.3994C5.06815 12.5437 4.99604 12.7023 4.99604 12.8754V42.1253C4.99604 42.2983 5.06815 42.457 5.21238 42.6013C5.35664 42.7455 5.51532 42.8176 5.68842 42.8176H6.47592C8.05092 40.3946 10.0961 38.4763 12.6115 37.0629C15.1269 35.6494 17.8384 34.9427 20.746 34.9427C23.6537 34.9427 26.3652 35.6494 28.8806 37.0629C31.396 38.4763 33.4412 40.3946 35.0162 42.8176ZM20.746 32.26C22.4624 32.26 23.9227 31.6578 25.127 30.4535C26.3313 29.2492 26.9335 27.7888 26.9335 26.0725C26.9335 24.3562 26.3313 22.8958 25.127 21.6915C23.9227 20.4872 22.4624 19.885 20.746 19.885C19.0297 19.885 17.5694 20.4872 16.3651 21.6915C15.1608 22.8958 14.5586 24.3562 14.5586 26.0725C14.5586 27.7888 15.1608 29.2492 16.3651 30.4535C17.5694 31.6578 19.0297 32.26 20.746 32.26ZM42.4672 40.3513L46.5344 36.284L43.4623 32.1734H39.6633C39.4094 31.4119 39.2147 30.6467 39.0792 29.878C38.9436 29.1092 38.8758 28.3167 38.8758 27.5003C38.8758 26.684 38.9436 25.9102 39.0792 25.1789C39.2147 24.4477 39.4094 23.6638 39.6633 22.8272H43.4623L46.5344 18.7167L42.4672 14.6494C40.5431 16.1811 39.0164 18.0842 37.8871 20.3588C36.7578 22.6333 36.1931 25.0138 36.1931 27.5003C36.1931 29.9868 36.7578 32.3674 37.8871 34.6419C39.0164 36.9164 40.5431 38.8195 42.4672 40.3513ZM10.7335 42.8176H30.7585C29.4691 41.3926 27.9561 40.2863 26.2196 39.4988C24.4831 38.7113 22.6585 38.3176 20.746 38.3176C18.8335 38.3176 17.0148 38.7113 15.2898 39.4988C13.5648 40.2863 12.046 41.3926 10.7335 42.8176ZM20.746 28.885C19.9643 28.885 19.3001 28.6117 18.7534 28.0651C18.2068 27.5184 17.9335 26.8542 17.9335 26.0725C17.9335 25.2907 18.2068 24.6266 18.7534 24.0799C19.3001 23.5333 19.9643 23.26 20.746 23.26C21.5278 23.26 22.192 23.5333 22.7386 24.0799C23.2853 24.6266 23.5586 25.2907 23.5586 26.0725C23.5586 26.8542 23.2853 27.5184 22.7386 28.0651C22.192 28.6117 21.5278 28.885 20.746 28.885Z" fill="url(#paint0_linear_203_8409)"/>
<defs>
<linearGradient id="paint0_linear_203_8409" x1="27.496" y1="8.80811" x2="27.496" y2="46.1925" gradientUnits="userSpaceOnUse">
<stop stop-color="#72F8CF"/>
<stop offset="1" stop-color="#29ABE2"/>
</linearGradient>
</defs>
</svg>
