<svg width="54" height="54" viewBox="0 0 54 54" fill="none" xmlns="http://www.w3.org/2000/svg">
<path d="M27 31.5C25.125 31.5 23.5312 30.8438 22.2188 29.5312C20.9062 28.2188 20.25 26.625 20.25 24.75V11.25C20.25 9.375 20.9062 7.78125 22.2188 6.46875C23.5312 5.15625 25.125 4.5 27 4.5C28.875 4.5 30.4688 5.15625 31.7812 6.46875C33.0938 7.78125 33.75 9.375 33.75 11.25V24.75C33.75 26.625 33.0938 28.2188 31.7812 29.5312C30.4688 30.8438 28.875 31.5 27 31.5ZM24.75 47.25V40.3312C20.85 39.8062 17.625 38.0625 15.075 35.1C12.525 32.1375 11.25 28.6875 11.25 24.75H15.75C15.75 27.8625 16.8469 30.5156 19.0406 32.7094C21.2344 34.9031 23.8875 36 27 36C30.1125 36 32.7656 34.9031 34.9594 32.7094C37.1531 30.5156 38.25 27.8625 38.25 24.75H42.75C42.75 28.6875 41.475 32.1375 38.925 35.1C36.375 38.0625 33.15 39.8062 29.25 40.3312V47.25H24.75ZM27 27C27.6375 27 28.1719 26.7844 28.6031 26.3531C29.0344 25.9219 29.25 25.3875 29.25 24.75V11.25C29.25 10.6125 29.0344 10.0781 28.6031 9.64687C28.1719 9.21562 27.6375 9 27 9C26.3625 9 25.8281 9.21562 25.3969 9.64687C24.9656 10.0781 24.75 10.6125 24.75 11.25V24.75C24.75 25.3875 24.9656 25.9219 25.3969 26.3531C25.8281 26.7844 26.3625 27 27 27Z" fill="url(#paint0_linear_203_8195)"/>
<defs>
<linearGradient id="paint0_linear_203_8195" x1="27" y1="4.5" x2="27" y2="47.25" gradientUnits="userSpaceOnUse">
<stop stop-color="#72F8CF"/>
<stop offset="1" stop-color="#29ABE2"/>
</linearGradient>
</defs>
</svg>
