<svg width="54" height="54" viewBox="0 0 54 54" fill="none" xmlns="http://www.w3.org/2000/svg">
<path d="M42.75 43.7062L37.9688 48.4312L34.8187 45.2812L39.5438 40.5L34.8187 35.7187L37.9688 32.5687L42.75 37.2937L47.5312 32.5687L50.6812 35.7187L45.9562 40.5L50.6812 45.2812L47.5312 48.4312L42.75 43.7062ZM13.5 49.5C11.625 49.5 10.0312 48.8437 8.71875 47.5312C7.40625 46.2187 6.75 44.625 6.75 42.75V36H13.5V4.5H47.25V27.8437C46.5375 27.5812 45.8062 27.3844 45.0562 27.2531C44.3062 27.1219 43.5375 27.0562 42.75 27.0562V9H18V36H30.0375C29.775 36.7125 29.5781 37.4437 29.4469 38.1937C29.3156 38.9437 29.25 39.7125 29.25 40.5H11.25V42.75C11.25 43.3875 11.4656 43.9219 11.8969 44.3531C12.3281 44.7844 12.8625 45 13.5 45H30.0375C30.3375 45.8625 30.7125 46.6687 31.1625 47.4187C31.6125 48.1687 32.1375 48.8625 32.7375 49.5H13.5ZM20.25 20.25V15.75H40.5V20.25H20.25ZM20.25 27V22.5H40.5V27H20.25Z" fill="url(#paint0_linear_203_8245)"/>
<defs>
<linearGradient id="paint0_linear_203_8245" x1="28.7156" y1="4.5" x2="28.7156" y2="49.5" gradientUnits="userSpaceOnUse">
<stop stop-color="#72F8CF"/>
<stop offset="1" stop-color="#29ABE2"/>
</linearGradient>
</defs>
</svg>
