<svg width="54" height="54" viewBox="0 0 54 54" fill="none" xmlns="http://www.w3.org/2000/svg">
<path d="M33.7539 51.75C32.5164 51.75 31.457 51.3094 30.5758 50.4281C29.6945 49.5469 29.2539 48.4875 29.2539 47.25C29.2539 46.3875 29.4602 45.6187 29.8727 44.9437C30.2852 44.2687 30.8289 43.725 31.5039 43.3125V30.8812C30.8289 30.4688 30.2852 29.9344 29.8727 29.2781C29.4602 28.6219 29.2539 27.8625 29.2539 27C29.2539 25.7625 29.6945 24.7031 30.5758 23.8219C31.457 22.9406 32.5164 22.5 33.7539 22.5C34.9914 22.5 36.0508 22.9406 36.932 23.8219C37.8133 24.7031 38.2539 25.7625 38.2539 27C38.2539 27.8625 38.0477 28.6219 37.6352 29.2781C37.2227 29.9344 36.6789 30.4688 36.0039 30.8812V37.35L45.0039 34.3687V30.8812C44.3289 30.4688 43.7852 29.9344 43.3727 29.2781C42.9602 28.6219 42.7539 27.8625 42.7539 27C42.7539 25.7625 43.1945 24.7031 44.0758 23.8219C44.957 22.9406 46.0164 22.5 47.2539 22.5C48.4914 22.5 49.5508 22.9406 50.432 23.8219C51.3133 24.7031 51.7539 25.7625 51.7539 27C51.7539 27.8625 51.5477 28.6219 51.1352 29.2781C50.7227 29.9344 50.1789 30.4688 49.5039 30.8812V37.575L36.0039 42.075V43.3125C36.6789 43.725 37.2227 44.2687 37.6352 44.9437C38.0477 45.6187 38.2539 46.3875 38.2539 47.25C38.2539 48.4875 37.8133 49.5469 36.932 50.4281C36.0508 51.3094 34.9914 51.75 33.7539 51.75ZM9.00391 45C7.76641 45 6.70703 44.5594 5.82578 43.6781C4.94453 42.7969 4.50391 41.7375 4.50391 40.5V13.5C4.50391 12.2625 4.94453 11.2031 5.82578 10.3219C6.70703 9.44062 7.76641 9 9.00391 9H22.5039L27.0039 13.5H45.0039C46.2414 13.5 47.3008 13.9406 48.182 14.8219C49.0633 15.7031 49.5039 16.7625 49.5039 18H25.1477L20.6477 13.5H9.00391V40.5H24.7539V45H9.00391Z" fill="url(#paint0_linear_203_8251)"/>
<defs>
<linearGradient id="paint0_linear_203_8251" x1="28.1289" y1="9" x2="28.1289" y2="51.75" gradientUnits="userSpaceOnUse">
<stop stop-color="#72F8CF"/>
<stop offset="1" stop-color="#29ABE2"/>
</linearGradient>
</defs>
</svg>
