<svg width="113" height="100" viewBox="0 0 113 100" fill="none" xmlns="http://www.w3.org/2000/svg">
<path d="M66.0734 50.2466L84.2934 34.7222C83.97 34.9994 83.6774 35.3074 83.431 35.6462L65.2109 51.1707C65.4574 50.8318 65.75 50.5238 66.0734 50.2466Z" fill="#A6E1FC"/>
<path d="M64.1898 0.932861L46.0042 16.4411H45.9888C45.1879 17.1187 44.7567 18.1506 44.6797 19.5367L62.8997 4.01229C62.9761 2.63719 63.4011 1.61071 64.1898 0.932861Z" fill="url(#paint0_linear_203_8221)"/>
<path d="M89.2961 83.5594L107.463 68.0799C106.071 69.259 104.364 70.1525 102.341 70.7456C99.6922 71.5311 96.9353 71.5619 94.1014 70.8534C91.2521 70.145 88.4336 68.7589 85.5998 66.6951C82.7813 64.6314 80.0706 62.0132 77.4831 58.8251C74.8957 55.6217 72.6163 51.987 70.6295 47.9211C66.9485 40.3899 64.5766 33.1513 63.4985 26.19C62.4204 19.2286 62.2202 11.8514 62.9133 4.01223L44.6933 19.5366C44.0002 27.3605 44.2004 34.753 45.2785 41.7144C46.372 48.6757 48.7439 55.9143 52.4094 63.4455C54.3808 67.5268 56.6757 71.1615 59.2631 74.3495C61.8506 77.5376 64.5612 80.1712 67.3797 82.2195C70.2136 84.2833 73.0321 85.654 75.8814 86.3779C78.6999 87.0863 81.4721 87.0555 84.1212 86.27C86.1696 85.654 87.8946 84.7607 89.2961 83.5594Z" fill="url(#paint1_linear_203_8221)"/>
<path d="M99.2905 35.6155C103.634 38.2953 107.007 42.084 109.409 47.0278C112.058 52.4644 112.705 57.4236 111.365 61.9207C110.025 66.4179 107.022 69.3595 102.34 70.7456C99.6909 71.5311 96.9186 71.5619 94.1001 70.8534C91.2508 70.1296 88.4324 68.7589 85.5985 66.6951C82.78 64.6468 80.0693 62.0131 77.4819 58.8251C74.8944 55.637 72.5996 52.0024 70.6282 47.921C66.9626 40.3899 64.5908 33.1513 63.4973 26.19C62.4192 19.2286 62.2189 11.836 62.912 4.01222C63.0044 2.4413 63.5435 1.33241 64.56 0.670159C64.8988 0.454542 65.253 0.285129 65.6381 0.17732C66.3928 -0.0536978 67.2398 -0.0536978 68.1485 0.146518L75.7723 1.91766C76.9274 2.28728 77.8361 3.13435 78.4984 4.50506C79.1606 5.87576 79.4841 7.53909 79.4687 9.51045C79.1452 13.8382 79.0836 18.2275 79.3301 22.6785C79.5457 27.1448 80.2541 30.6101 81.4555 33.0589C81.8713 33.9214 82.549 34.7838 83.4423 35.6463C84.2585 34.5528 85.4599 33.7827 87.0462 33.3053C90.8812 32.1656 94.9626 32.9357 99.3058 35.6001L99.2905 35.6155Z" fill="url(#paint2_linear_203_8221)"/>
<path d="M22.0415 63.1991L40.2615 47.6747C39.8303 48.0443 39.5223 48.4601 39.3528 48.9068L21.1328 64.4312C21.3176 63.9692 21.6103 63.5687 22.0415 63.1991Z" fill="#A6E1FC"/>
<path d="M20.0095 14.0072L1.80712 29.5166V29.532C1.00677 30.2092 0.529423 31.2556 0.359711 32.6557L0.356436 32.6585C-0.228823 40.4515 0.0176017 47.8749 1.08031 54.8978C2.14301 61.9362 4.49945 69.2209 8.16502 76.7521C12.1848 85.0226 17.1749 91.2447 23.1045 95.4184C29.0187 99.5921 34.5941 100.917 39.7998 99.3765C41.9098 98.745 43.681 97.821 45.1287 96.5889L63.3487 81.0645L63.3333 81.0491C61.901 82.2812 60.1144 83.2052 58.0044 83.8367C52.7987 85.3768 47.2387 84.0523 41.3091 79.8786C35.3795 75.7202 30.4048 69.4827 26.3696 61.2123C22.6887 53.6811 20.3322 46.3963 19.2849 39.358C18.2377 32.3359 17.9913 24.9288 18.5763 17.1213L18.5794 17.1187C18.7476 15.7274 19.2193 14.6853 20.0095 14.0072Z" fill="url(#paint3_linear_203_8221)"/>
<path d="M42.8681 46.381C46.7031 45.2413 50.7845 46.0114 55.1277 48.6758C59.4709 51.3556 62.8747 55.2059 65.3389 60.2883C67.8032 65.3707 68.5424 70.4993 67.2025 74.981C65.8626 79.4782 62.8131 82.4352 58.0232 83.8521C52.8175 85.3922 47.2421 84.0677 41.3279 79.894C35.3983 75.7203 30.4082 69.4982 26.3884 61.2277C22.7229 53.6966 20.3664 46.4118 19.3037 39.3734C18.241 32.3505 18.01 24.9271 18.5953 17.1341C18.7801 15.5324 19.3961 14.4081 20.3972 13.7458C20.7361 13.5302 21.0903 13.3608 21.4753 13.253C22.23 13.022 23.0771 13.022 23.9858 13.2222L31.4401 15.0395C32.5953 15.4092 33.5194 16.287 34.2124 17.704C34.9055 19.1209 35.2443 20.8304 35.2289 22.8171C34.9209 27.1449 34.8439 31.5034 35.0287 35.9082C35.2135 40.3129 35.922 43.732 37.1233 46.1962C37.6624 47.3205 38.417 48.2291 39.3719 48.9222C39.8032 47.8133 40.9737 46.9662 42.8835 46.3964L42.8681 46.381Z" fill="url(#paint4_linear_203_8221)"/>
<defs>
<linearGradient id="paint0_linear_203_8221" x1="75.8762" y1="0.932861" x2="75.8762" y2="86.8854" gradientUnits="userSpaceOnUse">
<stop stop-color="#1779A3"/>
<stop offset="1" stop-color="#054570"/>
</linearGradient>
<linearGradient id="paint1_linear_203_8221" x1="75.8762" y1="0.932861" x2="75.8762" y2="86.8854" gradientUnits="userSpaceOnUse">
<stop stop-color="#1779A3"/>
<stop offset="1" stop-color="#054570"/>
</linearGradient>
<linearGradient id="paint2_linear_203_8221" x1="87.2751" y1="0" x2="87.2751" y2="71.361" gradientUnits="userSpaceOnUse">
<stop stop-color="#B2E8FF"/>
<stop offset="1" stop-color="#3A9EE0"/>
</linearGradient>
<linearGradient id="paint3_linear_203_8221" x1="31.6978" y1="14.0072" x2="31.6978" y2="99.9978" gradientUnits="userSpaceOnUse">
<stop stop-color="#1779A3"/>
<stop offset="1" stop-color="#054570"/>
</linearGradient>
<linearGradient id="paint4_linear_203_8221" x1="43.0719" y1="13.0757" x2="43.0719" y2="84.4734" gradientUnits="userSpaceOnUse">
<stop stop-color="#B2E8FF"/>
<stop offset="1" stop-color="#3A9EE0"/>
</linearGradient>
</defs>
</svg>
